# xmcd
#
# Track frame offsets:
#	150
#	21077
#	35859
#	55175
#	70219
#	101174
#	119277
#	142211
#	166294
#	181791
#
# Disc length: 2686 seconds
#
# Revision: 1
# Processed by: cddbd v1.5.2PL0 Copyright (c) Steve Scherf et al.
# Submitted via: audiograbber 1.83.01
#
DISCID=8f0a7c0a
DTITLE=Markus B. - The best of two Worlds
DYEAR=2011
DGENRE=Soul
TTITLE0=An it's you
TTITLE1=As time goes by
TTITLE2=Marrying you
TTITLE3=Heart work
TTITLE4=Your song
TTITLE5=Zeit zu gehen
TTITLE6=Ich umarm die ganze Welt
TTITLE7=Die Zeit
TTITLE8=Es macht keinen Sinn
TTITLE9=Time to go
EXTD=
EXTT0=
EXTT1=
EXTT2=
EXTT3=
EXTT4=
EXTT5=
EXTT6=
EXTT7=
EXTT8=
EXTT9=
PLAYORDER=
